<svg xmlns="http://www.w3.org/2000/svg" viewBox="0 0 120 120" width="120" height="120" role="img" aria-label="Mentisix mark"><rect x="0.00" y="0.00" width="11.50" height="11.50" rx="0.69" fill="#00E5B0"></rect><rect x="21.70" y="0.00" width="11.50" height="11.50" rx="0.69" fill="#0F141B" stroke="#1C2230" stroke-width="1"></rect><rect x="43.40" y="0.00" width="11.50" height="11.50" rx="0.69" fill="#0F141B" stroke="#1C2230" stroke-width="1"></rect><rect x="65.10" y="0.00" width="11.50" height="11.50" rx="0.69" fill="#0F141B" stroke="#1C2230" stroke-width="1"></rect><rect x="86.80" y="0.00" width="11.50" height="11.50" rx="0.69" fill="#0F141B" stroke="#1C2230" stroke-width="1"></rect><rect x="108.50" y="0.00" width="11.50" height="11.50" rx="0.69" fill="#00E5B0"></rect><rect x="0.00" y="21.70" width="11.50" height="11.50" rx="0.69" fill="#00E5B0"></rect><rect x="21.70" y="21.70" width="11.50" height="11.50" rx="0.69" fill="#00E5B0"></rect><rect x="43.40" y="21.70" width="11.50" height="11.50" rx="0.69" fill="#0F141B" stroke="#1C2230" stroke-width="1"></rect><rect x="65.10" y="21.70" width="11.50" height="11.50" rx="0.69" fill="#0F141B" stroke="#1C2230" stroke-width="1"></rect><rect x="86.80" y="21.70" width="11.50" height="11.50" rx="0.69" fill="#00E5B0"></rect><rect x="108.50" y="21.70" width="11.50" height="11.50" rx="0.69" fill="#00E5B0"></rect><rect x="0.00" y="43.40" width="11.50" height="11.50" rx="0.69" fill="#00E5B0"></rect><rect x="21.70" y="43.40" width="11.50" height="11.50" rx="0.69" fill="#0F141B" stroke="#1C2230" stroke-width="1"></rect><rect x="43.40" y="43.40" width="11.50" height="11.50" rx="0.69" fill="#00E5B0"></rect><rect x="65.10" y="43.40" width="11.50" height="11.50" rx="0.69" fill="#00E5B0"></rect><rect x="86.80" y="43.40" width="11.50" height="11.50" rx="0.69" fill="#0F141B" stroke="#1C2230" stroke-width="1"></rect><rect x="108.50" y="43.40" width="11.50" height="11.50" rx="0.69" fill="#00E5B0"></rect><rect x="0.00" y="65.10" width="11.50" height="11.50" rx="0.69" fill="#00E5B0"></rect><rect x="21.70" y="65.10" width="11.50" height="11.50" rx="0.69" fill="#0F141B" stroke="#1C2230" stroke-width="1"></rect><rect x="43.40" y="65.10" width="11.50" height="11.50" rx="0.69" fill="#0F141B" stroke="#1C2230" stroke-width="1"></rect><rect x="65.10" y="65.10" width="11.50" height="11.50" rx="0.69" fill="#0F141B" stroke="#1C2230" stroke-width="1"></rect><rect x="86.80" y="65.10" width="11.50" height="11.50" rx="0.69" fill="#0F141B" stroke="#1C2230" stroke-width="1"></rect><rect x="108.50" y="65.10" width="11.50" height="11.50" rx="0.69" fill="#00E5B0"></rect><rect x="0.00" y="86.80" width="11.50" height="11.50" rx="0.69" fill="#00E5B0"></rect><rect x="21.70" y="86.80" width="11.50" height="11.50" rx="0.69" fill="#0F141B" stroke="#1C2230" stroke-width="1"></rect><rect x="43.40" y="86.80" width="11.50" height="11.50" rx="0.69" fill="#0F141B" stroke="#1C2230" stroke-width="1"></rect><rect x="65.10" y="86.80" width="11.50" height="11.50" rx="0.69" fill="#0F141B" stroke="#1C2230" stroke-width="1"></rect><rect x="86.80" y="86.80" width="11.50" height="11.50" rx="0.69" fill="#0F141B" stroke="#1C2230" stroke-width="1"></rect><rect x="108.50" y="86.80" width="11.50" height="11.50" rx="0.69" fill="#00E5B0"></rect><rect x="0.00" y="108.50" width="11.50" height="11.50" rx="0.69" fill="#00E5B0"></rect><rect x="21.70" y="108.50" width="11.50" height="11.50" rx="0.69" fill="#0F141B" stroke="#1C2230" stroke-width="1"></rect><rect x="43.40" y="108.50" width="11.50" height="11.50" rx="0.69" fill="#0F141B" stroke="#1C2230" stroke-width="1"></rect><rect x="65.10" y="108.50" width="11.50" height="11.50" rx="0.69" fill="#0F141B" stroke="#1C2230" stroke-width="1"></rect><rect x="86.80" y="108.50" width="11.50" height="11.50" rx="0.69" fill="#0F141B" stroke="#1C2230" stroke-width="1"></rect><rect x="108.50" y="108.50" width="11.50" height="11.50" rx="0.69" fill="#00E5B0"></rect></svg>